<svg width="8" height="10" viewBox="0 0 8 10" fill="none" xmlns="http://www.w3.org/2000/svg">
<path d="M2.6125 1.4H5.0875V0.7125C5.0875 0.489062 5.25938 0.3 5.5 0.3C5.72344 0.3 5.9125 0.489062 5.9125 0.7125V1.4H6.6C7.20156 1.4 7.7 1.89844 7.7 2.5V8C7.7 8.61875 7.20156 9.1 6.6 9.1H1.1C0.48125 9.1 0 8.61875 0 8V2.5C0 1.89844 0.48125 1.4 1.1 1.4H1.7875V0.7125C1.7875 0.489062 1.95938 0.3 2.2 0.3C2.42344 0.3 2.6125 0.489062 2.6125 0.7125V1.4ZM0.825 8C0.825 8.15469 0.945313 8.275 1.1 8.275H6.6C6.7375 8.275 6.875 8.15469 6.875 8V3.6H0.825V8Z" fill="#F1488D"/>
</svg>
