<svg width="16" height="16" viewBox="0 0 16 16" fill="none" xmlns="http://www.w3.org/2000/svg">
<path d="M14.9043 14.7363L10.9785 10.8105C11.8281 9.78516 12.2969 8.4668 12.2969 7.03125C12.2969 3.69141 9.54297 0.9375 6.20312 0.9375C2.83398 0.9375 0.138672 3.69141 0.138672 7.03125C0.138672 10.4004 2.86328 13.125 6.20312 13.125C7.60938 13.125 8.92773 12.6562 9.98242 11.8066L13.9082 15.7324C14.0547 15.8789 14.2305 15.9375 14.4355 15.9375C14.6113 15.9375 14.7871 15.8789 14.9043 15.7324C15.1973 15.4688 15.1973 15.0293 14.9043 14.7363ZM1.54492 7.03125C1.54492 4.45312 3.625 2.34375 6.23242 2.34375C8.81055 2.34375 10.9199 4.45312 10.9199 7.03125C10.9199 9.63867 8.81055 11.7188 6.23242 11.7188C3.625 11.7188 1.54492 9.63867 1.54492 7.03125Z" fill="#F1488D"/>
</svg>
