<svg width="22" height="22" viewBox="0 0 22 22" fill="none" xmlns="http://www.w3.org/2000/svg">
<path
  d="M20.6875 20.75C20.3125 21.125 19.625 21.125 19.25 20.75L11 12.4375L2.6875 20.75C2.3125 21.125 1.625 21.125 1.25 20.75C0.875 20.375 0.875 19.6875 1.25 19.3125L9.5625 11L1.25 2.75C0.875 2.375 0.875 1.6875 1.25 1.3125C1.625 0.9375 2.3125 0.9375 2.6875 1.3125L11 9.625L19.25 1.3125C19.625 0.9375 20.3125 0.9375 20.6875 1.3125C21.0625 1.6875 21.0625 2.375 20.6875 2.75L12.375 11L20.6875 19.3125C21.0625 19.6875 21.0625 20.375 20.6875 20.75Z"
  fill="#F1F1F1"
/>
</svg>
